<svg id="Layer_1" data-name="Layer 1" xmlns="http://www.w3.org/2000/svg" viewBox="0 0 14400 14400"><defs><style>.cls-1,.cls-2,.cls-3,.cls-4{fill:#fff;}.cls-1{opacity:0.1;}.cls-2{opacity:0.19;}.cls-3{opacity:0.14;}.cls-4{opacity:0.15;}.cls-5{font-size:12px;fill:#231f20;font-family:MyriadPro-Regular, Myriad Pro;}.cls-6{letter-spacing:-0.01em;}.cls-7{letter-spacing:-0.01em;}</style></defs><polygon class="cls-1" points="7424.11 6916.6 7220.92 6916.46 7119.2 7092.36 7220.67 7268.4 7423.86 7268.54 7525.58 7092.64 7424.11 6916.6"/><polygon class="cls-2" points="7489.44 6884.31 7286.25 6884.17 7184.53 7060.07 7286 7236.11 7489.2 7236.25 7590.91 7060.35 7489.44 6884.31"/><polygon class="cls-1" points="10868.85 7187.23 10303.45 7313.69 10505.95 7638.86 10868.85 7187.23"/><polygon class="cls-1" points="10674.48 7308.27 10300.57 7315.49 10503.06 7640.65 10674.48 7308.27"/><rect class="cls-3" x="8756.48" y="7178.94" width="458.33" height="94.47" transform="translate(1739.83 16195.99) rotate(-89.87)"/><rect class="cls-3" x="8698.06" y="7181.99" width="458.33" height="94.47" transform="translate(1678.49 16140.61) rotate(-89.87)"/><rect class="cls-1" x="7908.69" y="7240.03" width="283.5" height="283.5" transform="translate(-2685.41 5371.36) rotate(-31.91)"/><rect class="cls-4" x="7998.82" y="7240.03" width="283.5" height="283.5" transform="translate(-2671.79 5419.01) rotate(-31.91)"/><rect class="cls-1" x="8085.53" y="7240.03" width="283.5" height="283.5" transform="translate(-2658.68 5464.84) rotate(-31.91)"/><text class="cls-5" transform="translate(7780.03 7570.16)"><tspan class="cls-6">L</tspan><tspan x="5.5" y="0">o</tspan><tspan class="cls-7" x="12.08" y="0">r</tspan><tspan x="15.89" y="0">em ipsum</tspan></text><rect class="cls-3" x="9802.71" y="6933.92" width="182.45" height="182.45"/><ellipse class="cls-3" cx="9764.4" cy="7492.77" rx="160.21" ry="134.34"/></svg>