<svg id="Layer_1" data-name="Layer 1" xmlns="http://www.w3.org/2000/svg" viewBox="0 0 3749.65 945.45"><defs><style>.cls-1,.cls-2,.cls-3,.cls-4{fill:#fff;}.cls-1{opacity:0.1;}.cls-2{opacity:0.19;}.cls-3{opacity:0.14;}.cls-4{opacity:0.15;}.cls-5{font-size:12px;fill:#231f20;font-family:MyriadPro-Regular, Myriad Pro;}.cls-6{letter-spacing:-0.01em;}.cls-7{letter-spacing:-0.01em;}</style></defs><polygon class="cls-1" points="304.91 32.43 101.72 32.29 0 208.18 101.47 384.22 304.66 384.37 406.38 208.47 304.91 32.43"/><polygon class="cls-2" points="370.24 0.14 167.05 0 65.33 175.9 166.81 351.94 370 352.08 471.71 176.18 370.24 0.14"/><polygon class="cls-1" points="3749.65 303.06 3184.25 429.52 3386.75 754.69 3749.65 303.06"/><polygon class="cls-1" points="3555.28 424.1 3181.37 431.32 3383.86 756.48 3555.28 424.1"/><rect class="cls-3" x="8756.48" y="7178.94" width="458.33" height="94.47" transform="translate(-5379.37 9311.82) rotate(-89.87)"/><rect class="cls-3" x="8698.06" y="7181.99" width="458.33" height="94.47" transform="translate(-5440.71 9256.44) rotate(-89.87)"/><rect class="cls-1" x="7908.69" y="7240.03" width="283.5" height="283.5" transform="translate(-9804.61 -1512.82) rotate(-31.91)"/><rect class="cls-4" x="7998.82" y="7240.03" width="283.5" height="283.5" transform="translate(-9790.99 -1465.17) rotate(-31.91)"/><rect class="cls-1" x="8085.53" y="7240.03" width="283.5" height="283.5" transform="translate(-9777.88 -1419.33) rotate(-31.91)"/><text class="cls-5" transform="translate(660.83 685.98)"><tspan class="cls-6">L</tspan><tspan x="5.5" y="0">o</tspan><tspan class="cls-7" x="12.08" y="0">r</tspan><tspan x="15.89" y="0">em ipsum</tspan></text><path class="cls-3" d="M9530.48,7089.7c35.68,72.51,59.71,156.41,175.83,185,717.52,176.67,231.26,458.07-48.42,546.81-196.27,62.27-228.32-257.16-115.63-182.26" transform="translate(-7119.2 -6884.17)"/></svg>