<svg id="Layer_1" data-name="Layer 1" xmlns="http://www.w3.org/2000/svg" xmlns:xlink="http://www.w3.org/1999/xlink" viewBox="0 0 940.8 381.71"><defs><style>.cls-1{fill:#fff;stroke:#000;}.cls-1,.cls-2,.cls-3,.cls-4,.cls-5,.cls-6{stroke-miterlimit:10;}.cls-2,.cls-3,.cls-4,.cls-5,.cls-6{fill:none;stroke-width:7px;}.cls-2{stroke:url(#linear-gradient);}.cls-3{stroke:url(#linear-gradient-2);}.cls-4{stroke:#d69e00;}.cls-5{stroke:blue;}.cls-6{stroke:url(#linear-gradient-3);}</style><linearGradient id="linear-gradient" x1="7637.1" y1="7250.41" x2="7811.65" y2="7250.41" gradientUnits="userSpaceOnUse"><stop offset="0" stop-color="#001f6e"/><stop offset="1" stop-color="blue"/></linearGradient><linearGradient id="linear-gradient-2" x1="7806.96" y1="7179.92" x2="7946.79" y2="7179.92" gradientUnits="userSpaceOnUse"><stop offset="0" stop-color="blue"/><stop offset="1" stop-color="#001f6e"/></linearGradient><linearGradient id="linear-gradient-3" x1="7651.07" y1="7236.3" x2="7949.44" y2="7236.3" gradientUnits="userSpaceOnUse"><stop offset="0" stop-color="#aa8e00"/><stop offset="1" stop-color="#c7c515"/></linearGradient></defs><rect class="cls-1" x="0.5" y="0.5" width="380.71" height="380.71"/><path class="cls-2" d="M7639.44,7316.66l65.57-58.81,31.91-28.62s32.52-29,73.5-44.39" transform="translate(-7008.65 -7008.65)"/><path class="cls-3" d="M7821.08,7180.55c29.78-8.56,70.43-5.1,96.09-1.45L7909,7178c22.29,3,37.12,6.06,37.12,6.06m-137.87.77c4.21-1.59,8.51-3,12.88-4.29" transform="translate(-7008.65 -7008.65)"/><path class="cls-4" d="M7327,7117.46s-7.05,25.14-23,47" transform="translate(-7008.65 -7008.65)"/><path class="cls-4" d="M7204.91,7170.55c-36.25-25.82-58.9,10.36-68.93,24.16l-26.19,41.12" transform="translate(-7008.65 -7008.65)"/><line class="cls-4" x1="101.29" y1="227.04" x2="53.98" y2="301.31"/><path class="cls-5" d="M7304,7164.42c-23.22-3.3-60-6.43-87,1.31-3.95,1.14-7.84,2.45-11.66,3.88" transform="translate(-7008.65 -7008.65)"/><line class="cls-5" x1="101.29" y1="227.04" x2="41.94" y2="280.27"/><path class="cls-5" d="M7205.33,7169.61c-37.09,14-66.52,40.18-66.52,40.18l-28.88,25.9" transform="translate(-7008.65 -7008.65)"/><path class="cls-4" d="M7304,7164c-28.3,17.71-16.15,11.88-35.06,16.07-23.71,5.26-49.8-2.87-71.21-13.93" transform="translate(-7008.65 -7008.65)"/><path class="cls-5" d="M7293.21,7163c25.41,3.28,42.3,6.74,42.3,6.74" transform="translate(-7008.65 -7008.65)"/><path class="cls-6" d="M7654,7342.17l52.27-82.05-.16.15,28.95-45.43c11.07-15.25,36.1-55.22,76.15-26.7l-8-4.9c23.65,12.22,41.95,38.12,68.15,32.31,20.89-4.63,37.61-17.17,49.26-34.67v.49c17.61-24.11,25.4-51.88,25.4-51.88" transform="translate(-7008.65 -7008.65)"/></svg>