<svg id="Layer_1" data-name="Layer 1" xmlns="http://www.w3.org/2000/svg" xmlns:xlink="http://www.w3.org/1999/xlink" viewBox="0 0 1481.8 860.4"><defs><style>.cls-1,.cls-2{fill:#fff;}.cls-2{stroke:#000;}.cls-10,.cls-11,.cls-12,.cls-2,.cls-3,.cls-4,.cls-5,.cls-6,.cls-7,.cls-9{stroke-miterlimit:10;}.cls-10,.cls-11,.cls-12,.cls-3,.cls-4,.cls-5,.cls-6,.cls-7,.cls-9{fill:none;}.cls-3,.cls-4,.cls-5,.cls-6,.cls-7{stroke-width:7px;}.cls-3{stroke:url(#linear-gradient);}.cls-4{stroke:url(#linear-gradient-2);}.cls-5{stroke:#d69e00;}.cls-10,.cls-6{stroke:blue;}.cls-7{stroke:url(#linear-gradient-3);}.cls-8{fill:#009;}.cls-9{stroke:#009;}.cls-10,.cls-9{stroke-linecap:round;stroke-width:11px;}.cls-11,.cls-12{stroke:#4d4d4d;}.cls-11{stroke-width:3px;}.cls-12{stroke-width:0.84px;}</style><linearGradient id="linear-gradient" x1="7637.1" y1="7250.41" x2="7811.65" y2="7250.41" gradientUnits="userSpaceOnUse"><stop offset="0" stop-color="#001f6e"/><stop offset="1" stop-color="blue"/></linearGradient><linearGradient id="linear-gradient-2" x1="7806.96" y1="7179.92" x2="7946.79" y2="7179.92" gradientUnits="userSpaceOnUse"><stop offset="0" stop-color="blue"/><stop offset="1" stop-color="#001f6e"/></linearGradient><linearGradient id="linear-gradient-3" x1="7651.07" y1="7236.3" x2="7949.44" y2="7236.3" gradientUnits="userSpaceOnUse"><stop offset="0" stop-color="#aa8e00"/><stop offset="1" stop-color="#c7c515"/></linearGradient></defs><rect class="cls-1" x="1101.04" y="479.64" width="380.75" height="380.75"/><rect class="cls-1" x="561.14" y="527.71" width="310.47" height="242.89"/><rect class="cls-2" x="0.5" y="0.5" width="380.71" height="380.71"/><path class="cls-3" d="M7639.44,7316.66l65.57-58.81,31.91-28.62s32.52-29,73.5-44.39" transform="translate(-6992.22 -7008.65)"/><path class="cls-4" d="M7821.08,7180.55c29.78-8.56,70.43-5.1,96.09-1.45L7909,7178c22.29,3,37.12,6.06,37.12,6.06m-137.87.77c4.21-1.59,8.51-3,12.88-4.29" transform="translate(-6992.22 -7008.65)"/><path class="cls-5" d="M7327,7117.46s-7.05,25.14-23,47" transform="translate(-6992.22 -7008.65)"/><path class="cls-5" d="M7204.91,7170.55c-36.25-25.82-58.9,10.36-68.93,24.16l-26.19,41.12" transform="translate(-6992.22 -7008.65)"/><line class="cls-5" x1="117.71" y1="227.04" x2="70.4" y2="301.31"/><path class="cls-6" d="M7304,7164.42c-23.22-3.3-60-6.43-87,1.31-3.95,1.14-7.84,2.45-11.66,3.88" transform="translate(-6992.22 -7008.65)"/><line class="cls-6" x1="117.71" y1="227.04" x2="58.36" y2="280.27"/><path class="cls-6" d="M7205.33,7169.61c-37.09,14-66.52,40.18-66.52,40.18l-28.88,25.9" transform="translate(-6992.22 -7008.65)"/><path class="cls-5" d="M7304,7164c-28.3,17.71-16.15,11.88-35.06,16.07-23.71,5.26-49.8-2.87-71.21-13.93" transform="translate(-6992.22 -7008.65)"/><path class="cls-6" d="M7293.21,7163c25.41,3.28,42.3,6.74,42.3,6.74" transform="translate(-6992.22 -7008.65)"/><path class="cls-7" d="M7654,7342.17l52.27-82.05-.16.15,28.95-45.43c11.07-15.25,36.1-55.22,76.15-26.7l-8-4.9c23.65,12.22,41.95,38.12,68.15,32.31,20.89-4.63,37.61-17.17,49.26-34.67v.49c17.61-24.11,25.4-51.88,25.4-51.88" transform="translate(-6992.22 -7008.65)"/><rect class="cls-8" x="118.71" y="553.46" width="6.05" height="6.05"/><rect class="cls-8" x="254.34" y="553.46" width="6.05" height="6.05"/><rect class="cls-8" x="186.44" y="688.48" width="8.13" height="6.05"/><rect class="cls-8" x="283.44" y="741.69" width="8.13" height="6.05"/><rect class="cls-8" x="89.2" y="741.69" width="8.13" height="6.05"/><path class="cls-9" d="M7089.13,7750.9s23.75-183.3,27.92-183.3,59.69,130.37,69.32,130.09,63.41-130.09,67.57-130.09,29.67,183.3,29.67,183.3" transform="translate(-6992.22 -7008.65)"/><path class="cls-10" d="M7081.42,7750.9s25.51-183.3,29.68-183.3S7169,7698,7178.67,7697.69s63.4-130.09,67.56-130.09,29.68,183.3,29.68,183.3" transform="translate(-6992.22 -7008.65)"/><path class="cls-11" d="M8310.54,7845.94s-41.82-150.59-59.21-150.59c-15.29,0-23,63.31-32.61,63.31s-17.68-63.44-33-63.31c-15.62.14-53.31,151.2-53.31,151.2" transform="translate(-6992.22 -7008.65)"/><path class="cls-11" d="M8301.91,7846.55s-41.73-139.93-50.65-140.21c-7.7-.24-15.58,63-32.54,63-13.45,1-23.58-63-32.22-63-11.82,0-46.17,140.21-46.17,140.21" transform="translate(-6992.22 -7008.65)"/><path class="cls-11" d="M8293.12,7846.55s-37.17-126.32-41.67-128.2c-4.1-1.7-7.51,58.1-32.66,58.1-19.55,0-28.16-58.1-32.66-58.1-6.14,0-38.77,128.2-38.77,128.2" transform="translate(-6992.22 -7008.65)"/><path class="cls-12" d="M8392.71,7623.48s-12.45-42.91-16.58-42.91-6.45,17.73-9.13,17.73c-2.11.15-5-17.77-9.23-17.73s-14.92,42.91-14.92,42.91" transform="translate(-6992.22 -7008.65)"/><path class="cls-12" d="M8390.3,7623.48s-11.69-39.76-14.19-39.83c-2.15-.07-4.36,17.63-9.11,17.63-3.59,0-6.6-17.63-9-17.63-3.31,0-12.93,39.83-12.93,39.83" transform="translate(-6992.22 -7008.65)"/><path class="cls-12" d="M8387.83,7623.48s-9.88-35.9-11.67-35.9c-1.39,0-3.39,16.27-9.15,16.27s-7.42-16.27-9.14-16.27c-1.88,0-10.86,35.9-10.86,35.9" transform="translate(-6992.22 -7008.65)"/><polyline class="cls-11" points="629.6 725.61 666.11 564.55 723.56 653.55"/><polyline class="cls-11" points="640.08 725.61 669.87 591.6 724.14 672.65"/><polyline class="cls-11" points="651.39 725.61 674.7 616.01 723.56 686.15"/><polyline class="cls-11" points="818.33 725.61 781.82 564.55 723.56 653.55"/><polyline class="cls-11" points="807.84 725.61 778.05 591.6 723.78 672.65"/><polyline class="cls-11" points="796.53 725.61 773.23 616.01 723.56 686.15"/></svg>